<?xml version="1.0" standalone="no"?>
<!DOCTYPE svg PUBLIC "-//W3C//DTD SVG 20010904//EN"
 "http://www.w3.org/TR/2001/REC-SVG-20010904/DTD/svg10.dtd">
<svg version="1.0" xmlns="http://www.w3.org/2000/svg"
 width="2000.000000pt" height="2000.000000pt" viewBox="0 0 2000.000000 2000.000000"
 preserveAspectRatio="xMidYMid meet">

<g transform="translate(0.000000,2000.000000) scale(0.100000,-0.100000)"
fill="#000000" stroke="none">
<path d="M827 19984 c-276 -50 -510 -204 -664 -437 -59 -90 -99 -181 -131
-297 l-27 -95 -3 -9115 c-2 -8112 0 -9125 13 -9203 37 -215 124 -385 279 -542
127 -128 274 -213 455 -264 l96 -26 9155 0 9155 0 96 26 c178 50 327 135 451
261 153 153 246 331 283 543 13 78 15 1083 15 9165 0 8082 -2 9087 -15 9165
-69 394 -345 696 -734 804 l-96 26 -9125 2 c-7842 1 -9136 -1 -9203 -13z
m9493 -4654 c30 -4 96 -25 145 -47 99 -44 208 -76 420 -124 383 -86 571 -166
791 -335 153 -118 316 -315 380 -459 31 -71 29 -85 -33 -250 -26 -69 -59 -188
-79 -280 -24 -115 -44 -181 -70 -233 -55 -113 -176 -231 -303 -296 l-34 -18 7
36 c45 237 17 390 -92 506 l-52 55 34 -75 c67 -147 72 -287 18 -494 l-28 -110
-27 46 c-24 41 -115 133 -123 125 -2 -2 37 -90 87 -195 100 -215 159 -380 185
-522 21 -108 24 -401 7 -484 -8 -36 -8 -68 2 -125 36 -207 27 -432 -25 -636
-50 -193 -122 -348 -320 -695 -65 -113 -136 -243 -159 -288 -50 -100 -126
-284 -136 -329 l-6 -32 -60 39 c-71 46 -162 78 -244 87 -33 3 -58 3 -55 0 3
-3 46 -32 95 -64 196 -129 350 -280 417 -409 39 -74 6 -65 328 -89 347 -26
894 -86 908 -100 3 -3 -1009 -5 -2248 -5 -1239 0 -2251 2 -2248 5 22 22 1183
132 1423 135 6 0 10 48 10 123 1 136 15 205 73 350 l35 89 -31 66 c-17 37 -34
78 -38 91 -13 49 -5 186 15 251 20 63 20 64 1 121 -20 60 -27 144 -12 153 5 3
33 -11 62 -31 189 -127 448 -197 770 -208 158 -5 156 -3 -50 40 -136 29 -353
98 -457 145 -114 52 -233 140 -380 281 -95 92 -159 145 -194 162 l-51 24 30
22 c61 43 123 63 216 70 l91 7 -40 13 c-22 7 -83 15 -135 18 -151 8 -245 -32
-439 -187 -238 -190 -349 -257 -501 -305 -143 -45 -346 -45 -530 0 -30 8 -122
18 -203 23 -183 12 -220 27 -280 115 -74 109 -179 403 -227 642 -55 267 -54
740 1 1085 24 151 70 330 111 427 28 68 36 77 141 165 62 51 157 139 213 194
55 56 110 105 122 108 15 5 50 -5 109 -32 49 -22 106 -45 128 -51 114 -35 134
-52 154 -138 10 -41 17 -52 37 -57 64 -16 83 -82 38 -135 -33 -40 -87 -54
-174 -45 -62 6 -69 5 -79 -14 -27 -50 -158 -112 -237 -112 -60 0 -132 21 -188
55 -31 18 -56 29 -56 24 0 -23 32 -69 70 -102 41 -34 41 -36 31 -74 -16 -57
-13 -131 8 -215 27 -106 60 -180 166 -374 171 -311 210 -426 209 -624 -1 -105
-5 -139 -28 -213 -14 -49 -36 -107 -47 -129 -11 -22 -18 -42 -15 -45 10 -11
99 93 127 149 50 100 62 166 56 311 l-6 127 52 30 c65 38 196 80 246 80 37 0
41 3 82 68 24 37 80 103 124 147 213 214 459 281 698 191 82 -31 138 -66 204
-129 37 -34 53 -45 53 -33 0 28 -36 89 -74 125 -39 38 -44 51 -21 51 24 0 90
37 131 72 20 18 67 77 104 133 37 55 88 119 113 143 43 39 45 42 22 42 -32 0
-94 -56 -150 -134 -24 -34 -55 -72 -69 -85 l-26 -25 -33 31 c-17 17 -40 34
-49 39 -15 8 -13 15 19 64 115 180 170 374 131 467 -11 27 -12 25 -19 -35 -17
-141 -79 -279 -183 -408 -100 -125 -173 -165 -251 -138 -50 17 -62 31 -78 84
-9 32 -23 51 -47 68 -19 13 -37 33 -40 45 -3 13 -22 30 -43 40 -30 14 -37 23
-37 45 0 16 -6 36 -13 46 -13 18 -16 18 -66 1 -48 -16 -53 -16 -77 0 l-26 17
5 131 c3 73 9 148 12 167 6 33 4 37 -29 52 -44 21 -65 52 -75 114 -5 27 -19
85 -31 129 -15 58 -20 96 -16 136 21 223 266 492 544 597 57 22 84 26 182 26
135 1 188 -13 295 -79 121 -75 216 -190 266 -324 13 -35 25 -109 34 -199 17
-172 23 -186 152 -317 134 -137 235 -186 325 -156 49 16 124 66 137 90 11 19
10 20 -24 6 -35 -15 -105 -20 -105 -8 0 4 20 49 45 99 95 196 249 355 432 448
132 66 320 115 450 117 l68 1 -45 20 c-31 15 -67 21 -117 22 -40 1 -73 2 -73
4 0 14 61 77 104 107 97 66 152 78 391 80 211 2 277 11 342 48 18 10 2 12
-100 13 -67 1 -160 7 -207 13 -121 16 -276 14 -337 -4 -28 -8 -74 -31 -102
-49 l-50 -34 -68 47 c-64 45 -114 94 -324 315 -93 98 -173 156 -243 176 -25 7
-46 13 -46 14 0 0 7 23 15 50 27 90 17 217 -23 271 -13 19 -14 18 -8 -14 9
-53 -12 -160 -45 -228 -17 -35 -34 -63 -40 -63 -18 0 -91 -75 -131 -133 -58
-85 -76 -93 -226 -101 -176 -10 -174 -10 -194 13 -9 12 -24 56 -33 99 -9 42
-25 107 -36 144 -26 92 -25 127 10 174 36 50 61 66 140 87 34 10 115 44 180
76 171 87 246 102 391 81z m-1002 -6979 c91 -19 232 -75 232 -93 0 -10 -81
-208 -85 -208 -1 0 -31 13 -66 29 -182 82 -396 82 -474 1 -24 -25 -30 -40 -30
-75 0 -77 42 -101 273 -159 159 -40 240 -69 292 -101 52 -33 116 -106 131
-151 19 -57 17 -170 -5 -232 -39 -115 -173 -214 -336 -248 -100 -21 -303 -14
-415 15 -94 24 -245 96 -245 116 0 22 89 207 97 203 178 -90 272 -118 401
-118 148 0 232 46 232 129 0 72 -52 103 -271 160 -85 22 -174 47 -199 56 -111
39 -196 116 -225 205 -24 72 -17 186 16 255 50 105 168 189 310 220 94 20 257
18 367 -4z m1252 9 c78 -13 203 -53 247 -80 l32 -19 -41 -103 c-23 -57 -43
-105 -45 -107 -1 -2 -33 10 -70 27 -101 46 -192 65 -298 60 -139 -6 -205 -51
-205 -139 0 -67 52 -99 237 -144 312 -77 416 -137 459 -268 23 -69 15 -185
-17 -252 -50 -107 -170 -189 -319 -221 -99 -21 -301 -14 -417 15 -89 22 -194
66 -231 97 l-23 19 46 100 c26 55 48 101 50 103 1 2 31 -13 66 -32 112 -61
196 -81 339 -81 111 0 130 3 167 23 51 27 77 71 69 117 -12 65 -55 87 -280
146 -195 51 -255 75 -320 126 -76 59 -109 130 -110 232 0 106 23 168 90 240
92 100 226 149 414 150 52 1 124 -4 160 -9z m-7210 -125 l0 -115 -325 0 -325
0 0 -160 0 -160 285 0 285 0 0 -115 0 -115 -285 0 -285 0 0 -225 0 -225 -140
0 -140 0 0 615 0 615 465 0 465 0 0 -115z m650 -500 l0 -615 -145 0 -145 0 0
615 0 615 145 0 145 0 0 -615z m1400 500 l0 -115 -200 0 -200 0 0 -500 0 -500
-140 0 -140 0 0 500 0 500 -200 0 -200 0 0 115 0 115 540 0 540 0 0 -115z
m862 -255 l303 -370 3 370 2 370 140 0 140 0 0 -615 0 -615 -117 0 -118 1
-300 366 -300 367 -3 -367 -2 -367 -145 0 -145 0 0 615 0 615 120 0 119 0 303
-370z m1988 255 l0 -115 -325 0 -325 0 0 -130 0 -130 285 0 285 0 0 -115 0
-115 -285 0 -285 0 0 -140 0 -140 335 0 335 0 0 -115 0 -115 -475 0 -475 0 0
615 0 615 465 0 465 0 0 -115z m4145 -264 c126 -209 232 -378 235 -375 3 3
104 173 226 377 l220 372 116 3 115 3 6 -167 c4 -92 7 -369 7 -616 l0 -448
-135 0 -135 0 -2 366 -3 365 -179 -300 -179 -301 -66 0 -66 1 -175 289 -175
290 -3 -355 -2 -355 -135 0 -135 0 0 615 0 615 118 0 119 0 228 -379z m2332
-236 c150 -335 273 -611 273 -612 0 -2 -67 -3 -149 -3 l-149 0 -34 83 c-19 45
-43 103 -54 129 l-19 48 -286 0 -287 0 -34 -82 c-19 -46 -43 -104 -54 -130
l-19 -48 -148 0 c-82 0 -146 3 -144 8 3 4 125 277 272 607 147 330 269 603
272 608 2 4 68 6 146 5 l141 -3 273 -610z m1313 591 c143 -46 257 -142 301
-253 33 -83 33 -252 0 -335 -27 -69 -104 -158 -170 -195 -25 -15 -47 -27 -49
-29 -2 -1 55 -84 126 -185 70 -101 132 -190 136 -196 6 -10 -26 -13 -146 -13
l-153 1 -115 167 -115 167 -133 3 -132 3 0 -171 0 -170 -145 0 -145 0 0 616 0
616 343 -4 c293 -4 350 -7 397 -22z m1660 -91 l0 -115 -195 0 -195 0 0 -500 0
-500 -145 0 -145 0 0 500 0 500 -195 0 -195 0 0 115 0 115 535 0 535 0 0 -115z
m-9835 -2416 c140 -39 163 -236 37 -307 -76 -42 -180 -24 -233 41 -25 31 -39
96 -30 137 15 69 45 103 108 126 47 16 67 17 118 3z m3006 0 c134 -45 160
-218 46 -303 -38 -28 -133 -34 -181 -11 -131 62 -126 245 9 306 47 22 79 23
126 8z m709 1 c51 -14 78 -36 63 -50 -9 -10 -17 -9 -34 4 -15 10 -44 16 -81
16 -52 0 -62 -4 -95 -33 -31 -29 -37 -41 -40 -88 -3 -41 0 -61 15 -85 35 -55
111 -77 181 -53 30 11 31 13 31 70 0 46 3 59 15 59 12 0 15 -14 15 -68 l0 -68
-35 -17 c-49 -23 -126 -22 -176 3 -126 65 -110 257 26 305 48 17 69 18 115 5z
m-4260 -132 l105 -132 3 132 c2 108 5 132 17 132 13 0 15 -26 15 -165 0 -137
-2 -165 -14 -165 -8 0 -61 59 -118 131 l-103 131 -3 -131 c-2 -123 -4 -131
-22 -131 -19 0 -20 7 -20 165 0 151 2 165 18 165 10 0 59 -53 122 -132z m1287
99 c23 -23 28 -36 28 -78 0 -44 -4 -54 -32 -79 -27 -24 -43 -30 -112 -36 l-81
-7 0 -48 c0 -37 -4 -49 -15 -49 -13 0 -15 25 -15 166 l0 166 100 -4 c93 -3
101 -5 127 -31z m420 -132 c40 -87 73 -160 73 -162 0 -2 -9 -3 -19 -3 -13 0
-25 14 -38 45 l-18 45 -93 0 -93 0 -20 -45 c-14 -31 -26 -45 -39 -45 -21 0
-22 -2 65 185 20 44 44 95 51 113 11 25 20 32 36 30 17 -2 37 -37 95 -163z
m263 0 c0 -158 -1 -165 -20 -165 -19 0 -20 7 -20 165 0 158 1 165 20 165 19 0
20 -7 20 -165z m333 35 l102 -129 3 129 c2 122 4 130 22 130 19 0 20 -7 20
-166 0 -155 -1 -165 -19 -162 -10 2 -65 62 -122 133 l-104 130 -3 -132 c-2
-109 -5 -133 -17 -133 -13 0 -15 26 -15 165 0 141 2 165 15 165 9 0 61 -58
118 -130z m700 0 l102 -129 3 129 c2 122 4 130 22 130 19 0 20 -7 20 -166 0
-155 -1 -165 -19 -162 -10 2 -65 62 -122 133 l-104 130 -3 -132 c-2 -109 -5
-133 -17 -133 -13 0 -15 26 -15 165 0 141 2 165 15 165 9 0 61 -58 118 -130z
m1734 -35 c40 -87 73 -160 73 -162 0 -2 -9 -3 -19 -3 -13 0 -25 14 -38 45
l-18 45 -93 0 -93 0 -20 -45 c-14 -31 -26 -45 -39 -45 -21 0 -22 -2 65 185 20
44 44 95 51 113 11 25 20 32 36 30 17 -2 37 -37 95 -163z m263 0 c0 -158 -1
-165 -20 -165 -19 0 -20 7 -20 165 0 158 1 165 20 165 19 0 20 -7 20 -165z
m338 34 l102 -130 0 130 c0 124 1 131 20 131 19 0 20 -7 20 -165 0 -139 -2
-165 -15 -165 -8 0 -62 59 -120 131 l-105 131 0 -131 c0 -124 -1 -131 -20
-131 -19 0 -20 7 -20 165 0 151 2 165 18 165 10 -1 59 -55 120 -131z"/>
<path d="M10429 12504 c296 -317 423 -802 350 -1341 l-11 -81 37 -75 c53 -111
85 -248 93 -402 l7 -130 20 95 c15 71 20 132 19 240 0 136 -2 151 -32 238
l-32 93 15 115 c18 135 20 365 4 485 -38 292 -149 526 -331 694 -57 53 -186
145 -203 145 -4 0 25 -34 64 -76z"/>
<path d="M9716 9927 c-52 -68 -146 -222 -146 -239 0 -13 67 -9 77 5 5 6 22 46
38 87 15 41 43 108 61 148 18 39 31 72 29 72 -1 0 -28 -33 -59 -73z"/>
<path d="M14222 7836 c-51 -122 -92 -226 -92 -229 0 -4 86 -7 190 -7 105 0
190 2 190 4 0 8 -182 442 -188 448 -4 4 -49 -93 -100 -216z"/>
<path d="M15600 7905 l0 -217 168 4 c183 4 217 13 273 75 69 75 63 221 -12
290 -51 46 -94 56 -266 61 l-163 4 0 -217z"/>
<path d="M7740 5768 c-68 -46 -78 -149 -19 -207 102 -102 272 0 230 138 -17
58 -51 84 -119 89 -48 3 -63 0 -92 -20z"/>
<path d="M10749 5773 c-39 -24 -59 -65 -59 -121 0 -77 56 -132 135 -132 79 0
135 55 135 132 0 89 -49 138 -137 138 -26 0 -60 -8 -74 -17z"/>
<path d="M8420 5710 l0 -80 69 0 c88 0 121 22 121 80 0 58 -33 80 -121 80
l-69 0 0 -80z"/>
<path d="M8902 5700 l-39 -85 39 -3 c21 -2 55 -2 76 0 l39 3 -38 85 -38 85
-39 -85z"/>
<path d="M11932 5700 l-39 -85 39 -3 c21 -2 55 -2 76 0 l39 3 -38 85 -38 85
-39 -85z"/>
</g>
</svg>
