<?xml version="1.0" standalone="no"?>
<!DOCTYPE svg PUBLIC "-//W3C//DTD SVG 20010904//EN"
 "http://www.w3.org/TR/2001/REC-SVG-20010904/DTD/svg10.dtd">
<svg version="1.0" xmlns="http://www.w3.org/2000/svg"
 width="2000.000000pt" height="2000.000000pt" viewBox="0 0 2000.000000 2000.000000"
 preserveAspectRatio="xMidYMid meet">

<g transform="translate(0.000000,2000.000000) scale(0.100000,-0.100000)"
fill="#000000" stroke="none">
<path d="M10155 15333 c-60 -7 -112 -26 -226 -84 -65 -32 -146 -66 -180 -76
-79 -21 -104 -37 -140 -87 -35 -47 -36 -82 -10 -174 11 -37 27 -102 36 -144 9
-43 24 -87 33 -99 20 -23 18 -23 194 -13 150 8 168 16 226 101 40 58 113 133
131 133 6 0 23 28 40 63 33 68 54 175 45 228 -6 32 -5 33 8 14 40 -54 50 -181
23 -271 -8 -27 -15 -50 -15 -50 0 -1 21 -7 46 -14 70 -20 150 -78 243 -176
210 -221 260 -270 324 -315 l68 -47 50 34 c28 18 74 41 102 49 61 18 216 20
337 4 47 -6 140 -12 207 -13 102 -1 118 -3 100 -13 -65 -37 -131 -46 -342 -48
-239 -2 -294 -14 -391 -80 -43 -30 -104 -93 -104 -107 0 -2 33 -3 73 -4 50 -1
86 -7 117 -22 l45 -20 -68 -1 c-130 -2 -318 -51 -450 -117 -183 -93 -337 -252
-432 -448 -25 -50 -45 -95 -45 -99 0 -12 70 -7 105 8 34 14 35 13 24 -6 -13
-24 -88 -74 -137 -90 -90 -30 -191 19 -325 156 -129 131 -135 145 -152 317 -9
90 -21 164 -34 199 -50 134 -145 249 -266 324 -107 66 -160 80 -295 79 -98 0
-125 -4 -182 -26 -223 -85 -446 -293 -517 -484 -33 -87 -36 -156 -11 -249 12
-44 26 -102 31 -129 10 -62 31 -93 75 -114 33 -15 35 -19 29 -52 -3 -19 -9
-94 -12 -167 l-5 -131 26 -17 c24 -16 29 -16 77 0 50 17 53 17 66 -1 7 -10 13
-30 13 -46 0 -22 7 -31 37 -45 21 -10 40 -27 43 -40 3 -12 21 -32 40 -45 24
-17 38 -36 47 -68 16 -53 28 -67 78 -84 78 -27 151 13 251 138 104 129 166
267 183 408 7 60 8 62 19 35 39 -93 -16 -287 -131 -467 -32 -49 -34 -56 -19
-64 9 -5 32 -22 49 -39 l33 -31 26 25 c14 13 45 51 69 85 56 78 118 134 150
134 23 0 21 -3 -22 -42 -25 -24 -76 -88 -113 -143 -37 -56 -84 -115 -104 -133
-41 -35 -107 -72 -131 -72 -23 0 -18 -13 21 -51 38 -36 74 -97 74 -125 0 -12
-16 -1 -53 33 -66 63 -122 98 -204 129 -239 90 -485 23 -698 -191 -44 -44
-100 -110 -124 -147 -41 -65 -45 -68 -82 -68 -50 0 -181 -42 -246 -80 l-52
-30 6 -127 c6 -145 -6 -211 -56 -311 -28 -56 -117 -160 -127 -149 -3 3 4 23
15 45 11 22 33 80 47 129 23 74 27 108 28 213 1 198 -38 313 -209 624 -106
194 -139 268 -166 374 -21 84 -24 158 -8 215 10 38 10 40 -31 74 -38 33 -70
79 -70 102 0 5 25 -6 56 -24 56 -34 128 -55 188 -55 79 0 210 62 237 112 10
19 17 20 79 14 87 -9 141 5 174 45 45 53 26 119 -38 135 -20 5 -27 16 -37 57
-20 86 -40 103 -154 138 -22 6 -79 29 -128 51 -59 27 -94 37 -109 32 -12 -3
-67 -52 -122 -108 -56 -55 -151 -143 -213 -194 -105 -88 -113 -97 -141 -165
-64 -153 -120 -419 -142 -672 -12 -151 -13 -474 0 -625 23 -279 149 -699 257
-857 60 -88 97 -103 280 -115 81 -5 173 -15 203 -23 184 -45 387 -45 530 0
152 48 263 115 501 305 194 155 288 195 439 187 52 -3 113 -11 135 -18 l40
-13 -91 -7 c-93 -7 -155 -27 -216 -70 l-30 -22 51 -24 c35 -17 99 -70 194
-162 147 -141 266 -229 380 -281 104 -47 321 -116 457 -145 206 -43 208 -45
50 -40 -322 11 -581 81 -770 208 -29 20 -57 34 -62 31 -15 -9 -8 -93 12 -153
19 -57 19 -58 -1 -121 -20 -65 -28 -202 -15 -251 4 -13 21 -54 38 -91 l31 -66
-35 -89 c-58 -145 -72 -214 -73 -350 0 -75 -4 -123 -10 -123 -240 -3 -1401
-113 -1423 -135 -3 -3 1009 -5 2248 -5 1239 0 2251 2 2248 5 -14 14 -561 74
-908 100 -322 24 -289 15 -328 89 -67 129 -221 280 -417 409 -49 32 -92 61
-95 64 -3 3 22 3 55 0 82 -9 173 -41 244 -87 l60 -39 6 32 c10 45 86 229 136
329 23 45 94 175 159 288 198 347 270 502 320 695 52 204 61 429 25 636 -10
57 -10 89 -2 125 17 83 14 376 -7 484 -26 142 -85 307 -185 522 -50 105 -89
193 -87 195 8 8 99 -84 123 -125 l27 -46 28 110 c54 207 49 347 -18 494 l-34
75 52 -55 c109 -116 137 -269 92 -506 l-7 -36 34 18 c127 65 248 183 303 296
26 52 46 118 70 233 20 92 53 211 79 280 62 165 64 179 33 250 -64 144 -227
341 -380 459 -220 169 -408 249 -791 335 -212 48 -321 80 -420 124 -111 49
-201 63 -310 50z m283 -2796 c256 -166 415 -441 461 -796 16 -120 14 -350 -4
-485 l-15 -115 32 -93 c30 -87 32 -102 32 -238 1 -108 -4 -169 -19 -240 l-20
-95 -7 130 c-8 154 -40 291 -93 402 l-37 75 11 81 c73 539 -54 1024 -350 1341
-39 42 -68 76 -64 76 3 0 37 -19 73 -43z m-692 -2609 c-18 -40 -46 -107 -61
-148 -16 -41 -33 -81 -38 -87 -10 -14 -77 -18 -77 -5 0 26 188 312 205 312 2
0 -11 -33 -29 -72z"/>
<path d="M8955 8355 c-201 -42 -329 -168 -342 -338 -8 -101 13 -170 73 -236
62 -69 135 -102 340 -155 94 -24 187 -51 207 -60 93 -38 117 -118 54 -181 -41
-41 -89 -55 -193 -55 -135 0 -268 35 -366 97 -21 12 -40 23 -43 23 -7 0 -83
-163 -91 -195 -5 -19 4 -27 65 -59 39 -20 115 -49 169 -63 84 -23 118 -26 252
-27 124 -1 167 3 215 17 198 61 307 186 309 352 0 98 -16 145 -74 208 -62 68
-139 104 -325 152 -280 72 -310 89 -310 172 0 39 5 49 37 78 45 42 91 55 193
55 96 0 181 -19 271 -60 37 -16 68 -30 69 -30 5 0 87 211 84 214 -19 17 -122
59 -185 76 -104 28 -309 36 -409 15z"/>
<path d="M10252 8355 c-153 -33 -266 -115 -318 -230 -23 -50 -28 -73 -27 -142
0 -68 5 -91 27 -137 55 -113 148 -162 445 -236 138 -35 189 -57 220 -96 26
-33 27 -70 2 -110 -30 -49 -81 -67 -197 -72 -125 -5 -232 19 -348 78 -44 22
-81 39 -82 37 -1 -1 -23 -47 -48 -102 l-46 -100 28 -23 c32 -26 156 -76 244
-98 35 -8 117 -18 183 -21 326 -16 546 120 563 348 9 126 -31 215 -124 280
-63 43 -118 63 -316 114 -239 63 -268 81 -268 166 0 55 47 101 121 119 85 21
229 8 328 -28 46 -17 90 -37 98 -43 20 -17 27 -7 72 104 l40 98 -32 20 c-41
25 -169 66 -249 79 -86 14 -240 11 -316 -5z"/>
<path d="M2430 7735 l0 -615 140 0 140 0 0 225 0 225 285 0 285 0 0 115 0 115
-285 0 -285 0 0 160 0 160 323 2 322 3 3 113 3 112 -466 0 -465 0 0 -615z"/>
<path d="M3720 7735 l0 -615 145 0 145 0 0 615 0 615 -145 0 -145 0 0 -615z"/>
<path d="M4330 8235 l0 -115 200 0 200 0 0 -500 0 -500 140 0 140 0 0 500 0
500 200 0 200 0 0 115 0 115 -540 0 -540 0 0 -115z"/>
<path d="M5730 7735 l0 -615 140 0 140 0 0 372 c0 353 1 370 18 355 9 -9 148
-176 307 -371 l290 -355 118 -1 117 0 0 615 0 615 -140 0 -140 0 -2 -370 -3
-371 -303 371 -303 370 -120 0 -119 0 0 -615z"/>
<path d="M7330 7735 l0 -615 475 0 475 0 0 115 0 115 -335 0 -335 0 0 140 0
140 285 0 285 0 0 110 0 110 -282 2 -283 3 -3 133 -3 132 326 0 325 0 0 115 0
115 -465 0 -465 0 0 -615z"/>
<path d="M11940 7735 l0 -615 135 0 135 0 2 355 3 355 175 -287 175 -288 65
-3 66 -3 179 302 180 302 3 -367 2 -366 135 0 135 0 0 263 c0 144 -3 421 -7
615 l-6 353 -115 -3 -115 -3 -219 -370 c-121 -203 -223 -374 -227 -378 -4 -4
-110 163 -236 373 l-228 380 -118 0 -119 0 0 -615z"/>
<path d="M14165 8318 c-7 -18 -130 -295 -273 -615 l-260 -583 146 0 147 0 51
128 52 127 289 3 289 2 53 -130 53 -130 149 0 c126 0 148 2 143 15 -3 8 -126
283 -273 612 l-268 598 -142 3 -142 3 -14 -33z m247 -471 c48 -116 90 -220 94
-229 6 -17 -7 -18 -185 -18 -105 0 -191 3 -191 8 0 13 184 452 189 452 4 0 45
-96 93 -213z"/>
<path d="M15310 7735 l0 -615 145 0 145 0 0 170 0 170 133 0 132 -1 115 -169
115 -169 153 -1 c120 0 152 3 145 13 -4 6 -65 95 -136 195 -71 101 -127 185
-125 186 2 1 26 16 53 34 94 59 154 137 180 237 54 207 -35 410 -218 500 -115
56 -186 65 -533 65 l-304 0 0 -615z m655 361 c86 -37 125 -99 125 -199 0 -58
-18 -103 -56 -140 -52 -52 -85 -60 -266 -65 l-168 -4 0 217 0 217 163 -4 c126
-3 171 -8 202 -22z"/>
<path d="M16640 8235 l0 -115 195 0 195 0 0 -500 0 -500 145 0 145 0 0 500 0
500 195 0 195 0 0 115 0 115 -535 0 -535 0 0 -115z"/>
<path d="M7769 5821 c-77 -25 -119 -82 -119 -163 0 -115 94 -186 215 -164 20
4 53 23 75 42 82 74 68 211 -27 266 -35 21 -108 31 -144 19z m129 -48 c84 -52
79 -191 -9 -235 -149 -77 -284 114 -160 226 39 35 120 40 169 9z"/>
<path d="M10767 5815 c-101 -36 -145 -141 -97 -235 28 -55 72 -83 141 -88 99
-7 176 51 186 142 10 86 -41 162 -124 185 -48 14 -59 13 -106 -4z m135 -41
c56 -29 80 -134 43 -190 -54 -83 -186 -83 -240 0 -34 52 -13 161 37 187 57 30
104 31 160 3z"/>
<path d="M11477 5815 c-139 -49 -154 -240 -24 -306 49 -25 139 -23 181 4 24
16 26 23 26 82 0 51 -3 65 -15 65 -12 0 -15 -13 -15 -58 0 -53 -2 -60 -25 -70
-62 -29 -151 -4 -185 50 -17 26 -20 45 -17 87 3 47 9 59 40 88 21 19 49 34 64
35 52 2 88 -4 112 -19 17 -11 26 -12 34 -4 14 14 -14 37 -63 51 -45 13 -67 12
-113 -5z"/>
<path d="M7190 5655 c0 -158 1 -165 20 -165 18 0 20 8 22 131 l3 132 103 -132
c57 -72 110 -131 118 -131 12 0 14 28 14 165 0 139 -2 165 -15 165 -12 0 -15
-24 -17 -132 l-3 -133 -105 132 c-63 80 -112 133 -122 133 -16 0 -18 -15 -18
-165z"/>
<path d="M8390 5655 c0 -137 2 -165 14 -165 11 0 16 15 18 53 l3 52 83 5 c71
5 86 9 108 31 35 36 41 94 15 137 -27 43 -55 52 -157 52 l-84 0 0 -165z m194
114 c20 -16 26 -29 26 -59 0 -58 -33 -80 -121 -80 l-69 0 0 80 0 80 69 0 c54
0 74 -4 95 -21z"/>
<path d="M8913 5798 c-113 -238 -141 -308 -124 -308 10 0 25 17 39 45 l22 45
94 0 93 0 17 -45 c12 -31 23 -45 37 -45 22 0 25 -8 -64 185 -68 147 -91 172
-114 123z m86 -140 l20 -48 -80 0 c-44 0 -78 4 -75 8 2 4 21 44 41 87 l37 80
18 -40 c10 -22 27 -61 39 -87z"/>
<path d="M9260 5655 c0 -140 2 -165 15 -165 13 0 15 25 15 165 0 140 -2 165
-15 165 -13 0 -15 -25 -15 -165z"/>
<path d="M9500 5655 c0 -140 2 -165 15 -165 13 0 15 21 15 130 0 72 3 130 8
129 4 0 52 -58 107 -129 59 -76 107 -129 118 -130 15 0 17 14 17 165 0 158 -1
165 -20 165 -18 0 -20 -8 -22 -130 l-3 -130 -103 130 c-56 72 -109 130 -117
130 -13 0 -15 -26 -15 -165z"/>
<path d="M10200 5655 c0 -140 2 -165 15 -165 13 0 15 21 15 130 0 72 3 130 8
129 4 0 52 -58 107 -129 59 -76 107 -129 118 -130 15 0 17 14 17 165 0 158 -1
165 -20 165 -18 0 -20 -8 -22 -130 l-3 -130 -103 130 c-56 72 -109 130 -117
130 -13 0 -15 -26 -15 -165z"/>
<path d="M11943 5798 c-113 -238 -141 -308 -124 -308 10 0 25 17 39 45 l22 45
94 0 93 0 17 -45 c12 -31 23 -45 37 -45 22 0 25 -8 -64 185 -68 147 -91 172
-114 123z m86 -140 l20 -48 -80 0 c-44 0 -78 4 -75 8 2 4 21 44 41 87 l37 80
18 -40 c10 -22 27 -61 39 -87z"/>
<path d="M12290 5655 c0 -158 1 -165 20 -165 19 0 20 7 20 165 0 158 -1 165
-20 165 -19 0 -20 -7 -20 -165z"/>
<path d="M12530 5655 c0 -140 2 -165 15 -165 13 0 15 21 15 131 0 73 4 129 9
127 5 -1 54 -60 110 -130 55 -71 108 -128 116 -128 13 0 15 25 15 165 0 158
-1 165 -20 165 -19 0 -20 -7 -20 -132 l0 -131 -102 131 c-61 77 -110 131 -120
132 -16 0 -18 -14 -18 -165z"/>
</g>
</svg>
