<?xml version="1.0" standalone="no"?>
<!DOCTYPE svg PUBLIC "-//W3C//DTD SVG 20010904//EN"
 "http://www.w3.org/TR/2001/REC-SVG-20010904/DTD/svg10.dtd">
<svg version="1.0" xmlns="http://www.w3.org/2000/svg"
 width="2000.000000pt" height="2000.000000pt" viewBox="0 0 2000.000000 2000.000000"
 preserveAspectRatio="xMidYMid meet">

<g transform="translate(0.000000,2000.000000) scale(0.100000,-0.100000)"
fill="#000000" stroke="none">
<path d="M827 19984 c-276 -50 -510 -204 -664 -437 -59 -90 -99 -181 -131
-297 l-27 -95 -3 -9115 c-2 -8112 0 -9125 13 -9203 37 -215 124 -385 279 -542
127 -128 274 -213 455 -264 l96 -26 9155 0 9155 0 96 26 c178 50 327 135 451
261 153 153 246 331 283 543 13 78 15 1083 15 9165 0 8082 -2 9087 -15 9165
-69 394 -345 696 -734 804 l-96 26 -9125 2 c-7842 1 -9136 -1 -9203 -13z
m10893 -3075 c42 -6 106 -29 180 -64 299 -139 514 -207 1020 -320 698 -157
991 -250 1369 -431 356 -171 640 -373 932 -664 252 -250 438 -501 572 -769 64
-128 72 -151 75 -212 5 -86 -21 -182 -119 -432 -105 -268 -123 -333 -189 -657
-64 -320 -88 -407 -155 -547 -122 -258 -291 -447 -565 -630 -77 -52 -239 -137
-246 -130 -2 2 7 70 21 151 56 330 51 568 -17 776 -53 163 -153 313 -299 447
l-45 42 61 -123 c66 -130 115 -270 141 -401 25 -121 23 -387 -4 -537 -20 -110
-111 -486 -130 -538 -9 -25 -9 -25 -16 -3 -14 43 -110 179 -175 247 -63 66
-180 161 -188 153 -5 -5 35 -91 167 -362 238 -489 334 -722 420 -1025 84 -299
119 -536 127 -870 6 -251 -7 -453 -43 -653 -13 -74 -12 -90 6 -197 70 -405 80
-881 25 -1225 -96 -593 -277 -1035 -792 -1935 -356 -621 -462 -822 -590 -1120
-59 -138 -127 -324 -154 -419 -12 -42 -23 -78 -24 -79 -2 -2 -48 26 -102 62
-208 138 -455 223 -698 241 l-90 6 35 -22 c19 -13 88 -56 153 -97 238 -149
530 -378 730 -571 150 -145 288 -334 386 -528 48 -97 -2 -84 436 -113 384 -26
976 -79 1405 -125 493 -54 1064 -125 1074 -135 4 -4 5 -13 2 -19 -5 -8 -1519
-11 -5372 -11 -4810 0 -5364 2 -5364 15 0 9 6 18 13 20 18 7 772 100 1047 129
654 71 1551 142 2188 175 89 4 165 10 167 13 3 3 1 59 -6 124 -28 300 45 670
206 1054 30 71 55 143 55 159 0 17 -26 80 -59 143 -69 133 -94 209 -111 338
-20 154 0 332 60 521 36 114 37 143 6 212 -39 89 -57 179 -57 285 1 53 4 109
8 124 l8 28 90 -65 c246 -176 563 -317 920 -408 338 -87 596 -118 1015 -122
l325 -4 -105 19 c-712 125 -1322 321 -1708 546 -234 137 -350 233 -692 571
-118 117 -246 237 -285 268 -59 48 -155 101 -253 141 -22 9 -20 12 41 56 178
131 389 188 652 174 108 -5 117 -4 94 9 -53 29 -259 84 -357 95 -249 27 -515
-44 -777 -209 -128 -81 -231 -159 -490 -370 -406 -332 -664 -488 -987 -595
-206 -68 -429 -106 -628 -106 -196 0 -466 39 -690 100 -99 27 -120 29 -355 33
-580 13 -703 79 -904 490 -94 191 -132 286 -217 542 -69 210 -137 451 -183
650 -81 351 -104 555 -122 1082 -37 1040 91 1981 363 2677 60 153 58 150 338
382 225 186 481 424 624 578 103 112 152 146 210 146 22 0 88 -26 187 -74 154
-75 287 -125 453 -172 49 -14 104 -36 123 -48 66 -46 110 -129 133 -256 6 -36
13 -75 16 -87 3 -16 20 -27 71 -44 155 -51 193 -167 100 -305 -67 -101 -205
-136 -446 -114 l-134 12 -25 -34 c-172 -227 -498 -328 -805 -249 -90 24 -215
84 -304 147 l-62 45 14 -42 c42 -118 148 -249 238 -295 17 -9 33 -17 34 -18 1
-1 -10 -33 -24 -71 -38 -103 -44 -287 -14 -444 50 -261 151 -498 422 -987 257
-467 359 -688 434 -949 61 -212 89 -505 66 -705 -25 -217 -99 -477 -195 -684
-26 -55 -44 -101 -42 -103 9 -9 204 194 248 257 99 140 173 325 202 502 28
165 20 408 -20 624 -5 28 -1 33 49 66 196 131 455 226 662 244 44 4 87 10 96
13 9 3 57 67 107 141 332 498 789 820 1269 896 136 21 356 14 483 -15 270 -62
512 -197 727 -405 62 -60 113 -106 113 -103 0 3 -11 41 -25 84 -42 133 -122
249 -225 327 -61 45 -61 45 -33 52 82 18 113 29 180 62 90 43 190 126 264 218
30 38 115 158 188 267 137 204 228 309 318 368 l48 31 -57 -5 c-119 -11 -215
-94 -380 -327 -89 -127 -205 -260 -225 -260 -5 0 -26 23 -46 50 -44 59 -105
106 -159 122 -21 6 -38 13 -38 14 0 2 34 53 75 115 182 270 300 534 346 770
20 103 15 272 -10 351 -12 37 -25 69 -30 72 -4 3 -11 -38 -14 -92 -13 -190
-70 -389 -177 -607 -175 -360 -461 -686 -659 -750 -105 -34 -245 -3 -333 74
-32 28 -39 43 -54 113 -22 101 -56 148 -139 193 -44 24 -62 39 -69 61 -29 97
-29 97 -91 121 -85 33 -107 58 -112 130 -5 79 -10 99 -29 117 -22 23 -67 20
-122 -8 -107 -54 -177 -54 -242 0 l-30 26 1 227 c1 253 9 342 41 449 30 101
23 116 -73 163 -130 64 -156 106 -178 287 -6 45 -28 135 -50 200 -22 64 -44
146 -51 180 -14 79 -14 259 0 332 51 268 226 556 498 822 138 134 223 204 366
297 270 175 553 275 816 287 517 24 1042 -302 1299 -805 103 -202 144 -367
156 -636 12 -265 35 -373 101 -473 42 -65 271 -319 376 -418 86 -82 243 -189
344 -235 96 -45 216 -52 307 -19 132 48 219 100 296 177 41 40 72 76 69 78 -3
3 -34 -6 -69 -19 -52 -19 -223 -56 -262 -56 -41 0 117 341 257 555 177 268
409 499 679 673 113 73 339 185 481 237 218 80 499 137 771 155 87 6 161 12
162 14 7 6 -131 53 -221 76 -74 18 -110 21 -212 18 -68 -1 -124 0 -124 4 0 14
166 181 222 225 66 51 197 122 278 152 173 63 282 73 751 69 342 -2 405 0 480
15 111 22 210 56 282 97 55 31 89 61 54 47 -9 -3 -65 -11 -124 -18 -144 -15
-337 -7 -668 30 -354 40 -476 46 -605 32 -220 -25 -381 -90 -511 -209 l-38
-33 -33 17 c-101 52 -288 198 -428 336 -53 51 -195 203 -317 338 -262 290
-308 336 -433 429 -129 96 -328 191 -403 191 -15 0 -18 5 -13 23 82 276 92
461 35 631 -17 49 -75 166 -82 166 -1 0 -2 -75 -2 -168 -1 -183 -11 -243 -68
-382 -52 -127 -102 -203 -153 -230 -80 -42 -175 -141 -276 -287 -110 -158
-153 -203 -222 -234 -46 -20 -68 -22 -280 -24 -183 -1 -247 -5 -307 -20 -96
-22 -138 -15 -189 31 -49 44 -69 102 -115 336 -19 97 -53 232 -76 299 -37 109
-41 129 -37 193 6 92 47 171 131 256 74 76 105 92 241 125 141 35 264 86 466
193 280 150 368 180 575 201 99 10 283 5 385 -10z"/>
<path d="M11875 10249 c247 -256 419 -497 573 -805 114 -230 207 -487 267
-740 124 -521 144 -1168 56 -1804 l-17 -125 53 -100 c169 -323 249 -669 260
-1120 7 -262 6 -261 52 -40 111 531 86 976 -76 1337 l-26 58 27 187 c37 265
46 370 53 598 22 742 -139 1404 -461 1895 -198 301 -492 573 -801 740 l-80 44
120 -125z"/>
<path d="M10343 4158 c-98 -116 -189 -239 -264 -360 -71 -115 -179 -318 -179
-337 0 -7 33 -11 94 -11 l94 0 17 53 c44 133 162 420 269 650 19 42 34 77 33
77 -1 0 -30 -33 -64 -72z"/>
</g>
</svg>
